<svg version="1.1" xmlns="http://www.w3.org/2000/svg" xmlns:xlink="http://www.w3.org/1999/xlink" width="28.44205" height="75.12277" viewBox="0,0,28.44205,75.12277"><g transform="translate(-226.47613,-142.4979)"><g data-paper-data="{&quot;isPaintingLayer&quot;:true}" fill-rule="nonzero" stroke-miterlimit="10" stroke-dasharray="" stroke-dashoffset="0" style="mix-blend-mode: normal"><path d="M227.47613,190.95226v-23l25,10.45455z" fill="#ef00ff" stroke="#ef00ff" stroke-width="2" stroke-linecap="round" stroke-linejoin="miter"/><path d="M227.52387,216l0,-23l25,10.45455z" fill="#ef00ff" stroke="#ef00ff" stroke-width="2" stroke-linecap="round" stroke-linejoin="miter"/><path d="M227.52387,167v-23l25,10.45455z" fill="#ef00ff" stroke="#ef00ff" stroke-width="2" stroke-linecap="round" stroke-linejoin="miter"/><path d="" fill="#f78eff" stroke="none" stroke-width="0.5" stroke-linecap="butt" stroke-linejoin="miter"/><path d="M237.58938,205.46455c0.78333,0.34449 1.32778,1.08799 1.32778,1.95184c0,1.19092 -1.0317,2.15746 -2.30291,2.15746c-2.50355,0 -3.27985,-2.5348 -5.8208,-4.1093c2.55667,-1.66537 3.23471,-4.10929 5.8208,-4.10929c1.27121,0 2.30291,0.96654 2.30291,2.15746c0,0.86385 -0.54444,1.60735 -1.32778,1.95182z" fill="#ff99e5" stroke="#ff99e5" stroke-width="1.5" stroke-linecap="butt" stroke-linejoin="round"/><path d="M237.2521,179.69053c0.78333,0.34449 1.32778,1.08799 1.32778,1.95183c0,1.19092 -1.0317,2.15746 -2.30291,2.15746c-2.50355,0 -3.27985,-2.5348 -5.8208,-4.10929c2.55667,-1.66537 3.23471,-4.10929 5.8208,-4.10929c1.27121,0 2.30291,0.96654 2.30291,2.15747c0,0.86385 -0.54444,1.60735 -1.32778,1.95182z" fill="#ff99e5" stroke="#ff99e5" stroke-width="1.5" stroke-linecap="butt" stroke-linejoin="round"/><path d="M237.14796,153.45024c0.78334,0.34449 1.32778,1.08799 1.32778,1.95183c0,1.19092 -1.0317,2.15746 -2.30291,2.15746c-2.50354,0 -3.27985,-2.5348 -5.82079,-4.1093c2.55667,-1.66537 3.23471,-4.10929 5.82079,-4.10929c1.27121,0 2.30291,0.96654 2.30291,2.15747c0,0.86385 -0.54444,1.60735 -1.32778,1.95182z" fill="#ff99e5" stroke="#ff99e5" stroke-width="1.5" stroke-linecap="butt" stroke-linejoin="round"/></g></g></svg>