<svg version="1.1" xmlns="http://www.w3.org/2000/svg" xmlns:xlink="http://www.w3.org/1999/xlink" width="41" height="48.65332" viewBox="0,0,41,48.65332"><g transform="translate(-219.5,-151.84668)"><g data-paper-data="{&quot;isPaintingLayer&quot;:true}" fill-rule="nonzero" stroke-linecap="butt" stroke-linejoin="miter" stroke-miterlimit="10" stroke-dasharray="" stroke-dashoffset="0" style="mix-blend-mode: normal"><path d="M220.5,199.5v-39h39v39z" fill="#ffffff" stroke="#ff0000" stroke-width="2"/><path d="M226.25742,152.34668c0,-0.27614 0.22386,-0.5 0.5,-0.5c0.27614,0 0.5,0.22386 0.5,0.5c0,0.27614 -0.22386,0.5 -0.5,0.5c-0.27614,0 -0.5,-0.22386 -0.5,-0.5z" fill="#ffffff" stroke="none" stroke-width="0.5"/><path d="M241.43184,173.26899c-0.27735,0.41603 -0.69338,0.13868 -0.69338,0.13868l-0.4262,-0.42719c-0.39466,-1.38195 -0.44402,-4.04051 -1.7266,-4.95274c-1.30263,-0.92648 -3.57174,3.39666 -3.78523,4.0996c-2.02118,4.38265 -2.60798,-5.16355 -4.71699,-4.87717c-1.85611,0.25203 -2.50824,2.69483 -3.06042,4.54205c0.0036,0.04634 0.00732,0.09267 0.01118,0.13897l-0.03941,0.02078h0.03984v0.74262c0,0.27614 -0.22386,0.5 -0.5,0.5c-0.27614,0 -0.5,-0.22386 -0.5,-0.5v-0.72704c-0.13911,-1.67375 -0.10415,-3.37256 -0.14835,-5.05228c0,0 -0.01315,-0.49983 0.48667,-0.51298c0.49983,-0.01315 0.51298,0.48667 0.51298,0.48667c0.0179,0.68036 0.02277,1.36381 0.03153,2.04745c0.88896,-1.50371 2.37546,-3.08863 3.84649,-2.5871c1.44886,0.49397 3.1423,4.51281 2.94903,6.12377c0.02503,-0.16741 0.08734,-0.54497 0.15096,-0.69648c0.45362,-1.45674 2.96782,-5.81368 5.12626,-4.66337c1.73759,0.92602 1.80947,3.93398 2.28357,5.59253l0.01938,-0.13014c0,0 0.41603,0.27735 0.13868,0.69338z" fill="#000000" stroke="none" stroke-width="0.5"/><path d="M250.18719,194.91773c-0.46424,-0.1857 -0.27854,-0.64993 -0.27854,-0.64993l0.13842,-0.34373c0.29953,-0.89352 1.49392,-3.29632 2.66644,-5.0282c-0.57834,0.24373 -1.19755,0.42761 -1.88877,0.61156c-1.16927,0.22085 -2.8884,0.73783 -3.88078,-0.30359c-2.17586,-2.28338 2.28653,-5.66015 4.23165,-5.64689c1.42994,0.00975 2.41769,0.78874 3.45858,1.67968c0,0 0.37963,0.3254 0.05423,0.70502c-0.3254,0.37963 -0.70502,0.05423 -0.70502,0.05423c-0.82317,-0.70663 -1.63943,-1.44589 -2.77947,-1.43934c-1.01394,0.00583 -5.16393,2.51629 -3.49165,4.00723c0.69399,0.61874 2.15594,0.10717 2.89103,-0.03153c1.38468,-0.36809 2.44348,-0.70532 3.48905,-1.69869l0.50664,-0.57901c0.09168,-0.10589 0.22709,-0.17288 0.37815,-0.17288c0.27614,0 0.5,0.22386 0.5,0.5c0,0.11732 -0.04041,0.2252 -0.10806,0.31049l-0.5171,0.66484l-0.03893,-0.03028c-0.02513,0.02383 -0.05027,0.04734 -0.07541,0.07055c-1.11582,2.31265 -2.94072,4.22431 -3.74191,6.64302l-0.15863,0.39889c0,0 -0.1857,0.46424 -0.64993,0.27854z" fill="#000000" stroke="none" stroke-width="0.5"/></g></g></svg>