<svg version="1.1" xmlns="http://www.w3.org/2000/svg" xmlns:xlink="http://www.w3.org/1999/xlink" width="585.58559" height="349.84985" viewBox="0,0,585.58559,349.84985"><g transform="translate(52.7928,2.43244)"><g data-paper-data="{&quot;isPaintingLayer&quot;:true}" fill-rule="nonzero" stroke="none" stroke-linecap="butt" stroke-linejoin="miter" stroke-miterlimit="10" stroke-dasharray="" stroke-dashoffset="0" style="mix-blend-mode: normal"><path d="M-52.79279,347.41742v-349.84985h585.58559v349.84985z" fill="#ffffff" stroke-width="0"/><path d="M-19.46797,346.28736v-42.27143h526.84673v42.27143z" fill="#7bffbf" stroke-width="0"/><path d="M97.58904,90.25371c-0.01182,2.49997 -2.51179,2.48815 -2.51179,2.48815l-0.76175,-0.01486c-8.09425,-0.82341 -15.49456,0.55456 -23.43424,2.08143c-10.79133,2.07527 -21.61538,4.30806 -31.89473,8.26682c0,0 -2.33337,0.89745 -3.23082,-1.43591c-0.89745,-2.33337 1.43592,-3.23081 1.43592,-3.23081c10.56254,-4.05742 21.65959,-6.37825 32.74539,-8.51012c8.42751,-1.62067 16.28141,-2.99236 24.876,-2.14659l0.28787,-0.0099c0,0 2.49997,0.01182 2.48815,2.51179z" fill="#5c9685" stroke-width="0.5"/><path d="M65.47104,175.97796c-2.23607,-1.11803 -1.11803,-3.3541 -1.11803,-3.3541l0.78462,-1.37226c1.76475,-8.74174 1.74817,-18.0822 2.64609,-26.966c1.27928,-12.65691 3.35141,-25.36486 5.33595,-37.93361c0,0 0.3899,-2.46941 2.85931,-2.0795c2.4694,0.3899 2.0795,2.85931 2.0795,2.85931c-1.97006,12.477 -4.03245,25.09157 -5.30006,37.65615c-0.91379,9.0575 -0.94881,18.52427 -2.7179,27.44423l-1.21538,2.62774c0,0 -1.11804,2.23607 -3.35411,1.11803z" fill="#5c9685" stroke-width="0.5"/><path d="M171.2887,154.93527c-2.19338,1.19963 -3.39301,-0.99375 -3.39301,-0.99375l-1.84744,-3.45089c-1.51209,-8.81581 -0.84517,-18.78617 -5.13859,-27.02393c-3.55062,-6.81258 -12.56455,-10.26062 -19.74359,-6.96869c-1.77506,0.81395 -3.31575,2.07701 -4.72781,3.46566c-1.45813,6.44703 -2.63676,13.00709 -4.49347,19.32001c-1.13593,3.86226 -2.22251,9.35365 -4.66936,12.67057c-2.23009,3.02308 -6.04614,9.05195 -9.07264,1.03305c-0.56973,-1.50953 1.65084,-9.36343 2.10431,-11.12976c1.33357,-5.14769 3.33763,-9.53028 5.54514,-14.35517c1.55262,-3.3935 2.58065,-6.25458 5.16343,-9.10567c0.01746,-0.01928 0.39952,-0.33538 0.98821,-0.81789c0.62906,-3.00704 1.32806,-5.98922 2.25664,-8.89306c2.53906,-7.94011 6.96274,-15.54374 10.57716,-23.03074c0,0 1.08687,-2.25138 3.33826,-1.16451c2.25138,1.08688 1.16451,3.33825 1.16451,3.33825c-3.51017,7.27106 -7.85169,14.66891 -10.31749,22.37992c-0.24101,0.75368 -0.47079,1.5117 -0.69102,2.27343c0.36933,-0.2854 0.61596,-0.46729 0.68014,-0.49634c9.53612,-4.31715 21.4279,-0.11719 26.25641,9.03131c4.54544,8.61216 4.02438,18.60904 5.5054,27.84001l1.50857,2.68517c0,0 1.19963,2.19337 -0.99374,3.393zM128.07897,134.75147c-1.15215,2.68401 -2.17022,5.37287 -2.92933,8.35096c-0.17012,0.66087 -0.33982,1.32184 -0.50963,1.98279c0.46606,-0.95691 0.89034,-1.83425 1.13929,-2.54018c0.90084,-2.55452 1.57261,-5.18294 2.29967,-7.79356z" fill="#5c9685" stroke-width="0.5"/><path d="M237.41026,153.81341c0.92847,2.32119 -1.39272,3.24967 -1.39272,3.24967l-3.39515,1.17858c-4.86623,-1.69213 -6.80442,-1.47437 -9.77756,-6.39823c-1.54811,-2.56385 -1.00921,-5.91112 -1.27057,-8.8947c-0.08527,-0.97346 -0.19258,-1.98389 -0.29949,-3.01519c-0.59176,3.00904 -1.31875,6.00042 -2.29737,9.0472c-0.56183,1.74917 -0.74045,3.72374 -1.84052,5.19518c-3.99164,5.3392 -10.62763,5.24451 -16.43748,3.67497c-2.00619,-0.54198 -4.23211,-0.91439 -5.80571,-2.27171c-1.32823,-1.14567 -1.84807,-3.036 -2.30966,-4.72824c-1.23434,-4.52528 -0.99451,-11.92275 2.10519,-15.73406c3.78164,-4.64978 13.43231,-5.10987 18.85752,-6.31548c0,0 2.44047,-0.54233 2.9828,1.89814c0.54233,2.44047 -1.89814,2.98279 -1.89814,2.98279c-4.35436,0.96764 -9.19706,1.60549 -13.38984,3.1766c-0.97968,0.36711 -2.09624,0.69326 -2.75264,1.50792c-1.47019,1.82466 -1.46962,4.66205 -1.40051,6.81742c0.00573,0.17889 0.03903,5.84107 1.19605,6.72029c1.00137,0.76094 2.38173,0.82907 3.61171,1.09165c1.6518,0.35264 6.6152,1.10062 8.44256,0.46855c3.13471,-1.08428 3.06147,-3.23971 3.86202,-5.96175c1.90323,-6.47139 2.93452,-12.50904 3.85306,-19.17539l0.01401,-0.02871l-0.00928,-0.00151l0.55653,-3.41746c0.17535,-1.2092 1.2162,-2.13807 2.474,-2.13807c1.03934,0 1.93056,0.63424 2.30771,1.53681l1.97682,4.44785l-0.04522,0.0201c0.0527,0.09146 0.10441,0.18356 0.15509,0.27633c0.69301,1.26874 0.81121,7.98024 0.8406,8.59435c0.15603,3.26065 0.50037,6.51069 0.85462,9.7558c0.0822,0.75302 -0.22653,1.61261 0.15462,2.26723c1.38489,2.37854 2.98635,2.67546 5.22244,3.60177l1.60485,-0.82142c0,0 2.32119,-0.92848 3.24966,1.39272z" fill="#5c9685" stroke-width="0.5"/><path d="M295.08907,159.74189c-2.5,0 -2.5,-2.5 -2.5,-2.5l0.00396,-0.85928c-0.259,-4.60265 -0.70634,-9.18531 -1.0492,-13.78259c-0.32274,-4.32747 -0.45582,-9.35397 -3.21018,-13.02631c-3.01954,-4.02591 -9.8917,-5.67847 -14.21014,-3.30396c-7.95278,3.97639 -17.12284,7.30622 -22.75985,14.40952c-0.25822,0.32539 -0.4998,0.64079 -0.72638,0.94836c-0.07418,1.25148 -0.15543,2.50507 -0.24215,3.76257c-0.04708,0.68264 -0.6284,9.29784 -0.70911,9.64917c-0.86296,3.75643 -2.92221,11.54547 -8.86043,2.26396c-0.22767,-0.35586 0.9063,-8.6784 1.34862,-10.20829c0.82115,-2.84021 2.04374,-5.32497 3.57032,-7.53123c0.20875,-3.93157 0.34454,-7.86414 0.34454,-11.82191c0,0 0,-2.5 2.5,-2.5c2.5,0 2.5,2.5 2.5,2.5c0,2.03769 -0.03394,4.06347 -0.09506,6.08497c5.98066,-5.12099 13.77911,-8.47208 20.89344,-12.02924c1.06951,-0.50221 2.03799,-1.3457 3.20853,-1.50662c1.86767,-0.25676 3.76654,0.17493 5.64832,0.28902c17.3749,1.05345 16.12603,22.86505 16.84081,35.52115l0.00396,1.14072c0,0 0,2.5 -2.5,2.5z" fill="#5c9685" stroke-width="0.5"/><path d="M357.65159,131.1582c0.68078,-0.41631 1.43748,-0.41631 1.43748,-0.41631l1.1868,4.90381c-2.97041,0.82925 -6.10285,1.08225 -9.1868,1.09619c-6.00381,-0.01526 -11.70718,-1.3829 -17.58738,-2.56797c-3.34403,-0.67394 -6.27175,-1.35548 -9.01377,-2.79544c0.26822,1.87047 0.56639,3.73681 0.90004,5.59823l1.52751,3.84983c0,0 0.91535,2.3264 -1.41105,3.24175c-2.3264,0.91535 -3.24174,-1.41106 -3.24174,-1.41106l-1.68363,-4.31146c-0.67487,-3.6651 -1.21085,-7.34886 -1.6496,-11.04552c-2.84068,-2.29672 -5.13038,-4.43781 -2.46699,-9.37269c0.25957,-0.48095 0.77208,-0.92895 1.43241,-1.34176c-0.89974,-11.52561 -1.25047,-23.122 -2.29552,-34.61758c0,0 -0.22634,-2.48973 2.2634,-2.71607c2.48973,-0.22634 2.71607,2.2634 2.71607,2.2634c0.9973,10.9703 1.35148,22.03941 2.16196,33.04907c1.00483,-0.31904 1.92192,-0.58049 2.5671,-0.78043c11.14997,-3.45531 22.83481,-4.72908 34.0944,-7.94611c0,0 2.40381,-0.6868 3.09062,1.71701c0.6868,2.40381 -1.71701,3.09062 -1.71701,3.09062c-9.71443,2.77555 -19.59337,4.00011 -29.33818,6.47285c-2.67703,0.67929 -5.29342,1.58082 -7.91716,2.44333c-0.11865,0.03901 -0.24166,0.07199 -0.36734,0.10137c0.1662,1.86772 0.3505,3.73302 0.55829,5.59512c0.91526,0.62428 1.77252,1.11652 2.19809,1.36071c3.51545,2.01716 4.57268,1.85843 8.57269,2.65193c5.5436,1.09971 10.94935,2.48703 16.60681,2.47087c2.19141,0.01138 4.42069,-0.1116 6.56252,-0.58369z" fill="#5c9685" stroke-width="0.5"/><path d="M369.66372,155.13555c0.60634,-2.42536 3.0317,-1.81902 3.0317,-1.81902l1.70375,0.44466c8.22369,1.09656 23.51225,-2.84059 19.37428,-14.07705c-2.08013,-5.64848 -8.99969,-3.61265 -11.49407,-8.98555c-0.62957,-1.35611 -0.17221,-2.98632 -0.19018,-4.48133c-0.08107,-6.74317 1.9622,-11.14008 7.88184,-14.21144c0,0 2.23607,-1.11803 3.35411,1.11804c1.11804,2.23607 -1.11803,3.3541 -1.11803,3.3541c-4.44499,2.1089 -4.91841,4.98923 -5.11816,9.78855c-0.03501,0.84122 -0.44156,1.71513 -0.19018,2.51867c0.57472,1.83712 2.42058,1.05966 3.61295,1.6332c3.45963,1.66408 6.4026,3.63722 7.89299,7.38126c0.72254,1.81512 0.84328,3.83349 0.94267,5.78461c0.33003,6.47886 -3.46093,9.11201 -8.57866,11.86183c-5.56259,2.98886 -10.74437,4.01425 -16.98973,3.2765l-2.29625,-0.55534c0,0 -2.42536,-0.60634 -1.81902,-3.03169z" fill="#5c9685" stroke-width="0.5"/><path d="M107.03581,238.70285c-0.01728,-1.37146 1.31292,-2.13157 1.31292,-2.13157c4.43714,-2.53551 8.73673,-5.11937 13.44693,-7.13018c1.40836,-0.60124 2.73884,-1.77659 4.2682,-1.69909c10.59931,0.53713 7.88327,14.51316 6.17042,20.97148c-0.45074,1.6995 -0.61723,3.50729 -1.38205,5.0905c-2.43791,5.04653 -3.50221,4.55313 -8.3741,6.70536c-8.46721,3.7405 -16.8656,4.93013 -25.32945,0.3089c-0.51852,-1.90618 -1.61855,-3.74409 -1.55557,-5.71853c0.13602,-4.26441 3.98561,-10.07654 6.223,-13.45406l1.76133,-2.38815c0,0 1.46589,-1.98657 3.45836,-0.55466zM108.11953,240.81876c-0.06817,0.79676 -0.51883,1.4075 -0.51883,1.4075l-1.69167,2.29135c-2.49557,3.71615 -5.77829,8.53438 -4.87958,13.14791c3.66041,1.1541 9.09557,2.02912 12.88323,0.99102c0.90958,-0.2493 5.15286,-2.14716 6.59587,-2.74292c3.32559,-1.373 4.4192,-0.90372 5.81735,-4.23383c2.01727,-4.80471 2.93182,-11.16192 2.33005,-16.36351c-0.12911,-1.11604 -1.1265,-2.72791 -2.54167,-2.57451c-0.85565,0.09275 -1.48297,0.87764 -2.25677,1.25443c-4.46487,2.17407 -8.70956,4.44857 -13.0281,6.9163c0,0 -1.49281,0.85304 -2.70988,-0.09373z" fill="#5c9685" stroke-width="0.5"/><path d="M191.35684,230.50966c-1.76776,1.76776 -3.53553,0 -3.53553,0l-1.89954,-1.90494c-4.81301,-4.13532 -10.17735,0.63908 -13.43421,4.769c-3.90174,4.94767 -8.37795,10.19885 -11.14567,15.90242c-0.30237,0.62311 -0.51508,1.27998 -0.67917,1.95504c-0.4222,3.2154 -1.10755,6.41742 -1.66612,9.68435l-0.20257,0.20834l0.11623,0.0465l-0.97837,2.44593c-0.35452,0.94948 -1.26971,1.62559 -2.34282,1.62559c-1.38071,0 -2.5,-1.11929 -2.5,-2.5c0,-0.17737 0.01847,-0.35043 0.0536,-0.51736l0.92612,-4.86212c0.03502,-2.87819 0.73546,-5.70276 1.85741,-8.44281c0.23875,-2.51435 0.23207,-5.05035 -0.28127,-7.65223c-0.5639,-2.85818 -2.00604,-5.47124 -2.92757,-8.23493c0,0 -0.79057,-2.37171 1.58114,-3.16228c2.37171,-0.79057 3.16228,1.58114 3.16228,1.58114c0.97875,2.93721 2.47003,5.72825 3.07243,8.76507c0.023,0.11593 0.04515,0.23173 0.06647,0.34742c2.5641,-3.72421 5.48464,-7.19404 7.98113,-10.31059c3.94354,-4.92299 10.68484,-10.47632 17.50092,-7.80581c1.24111,0.48626 2.11642,1.62111 3.17463,2.43166l2.10046,2.09505c0,0 1.76776,1.76777 0,3.53553z" fill="#5c9685" stroke-width="0.5"/><path d="M70.01426,238.85917c0.35356,2.47487 -2.12132,2.82843 -2.12132,2.82843l-1.91933,0.25501c-4.22288,1.14686 -8.46328,2.11025 -12.7138,3.00447c-0.02724,0.21579 -0.0402,0.42874 -0.03708,0.63809c0.04999,3.3527 2.39965,6.67044 3.10885,9.88106c1.34829,6.10394 0.85355,12.50187 -0.25414,18.56581c-0.22719,1.1421 -0.45438,2.2842 -0.68157,3.4263l-0.34389,1.38772c0,0 -0.60634,2.42536 -3.03169,1.81902c-2.42535,-0.60634 -1.81901,-3.0317 -1.81901,-3.0317l0.29069,-1.15062c0.225,-1.13087 0.44999,-2.26175 0.67499,-3.39262c0.99883,-5.34237 1.49925,-11.10776 0.29306,-16.4979c-0.79839,-3.56782 -3.08733,-6.87758 -3.23034,-10.61307c-4.7996,0.96666 -9.60833,1.90265 -14.41557,2.97175c0,0 -2.44047,0.54233 -2.98279,-1.89814c-0.54232,-2.44047 1.89814,-2.9828 1.89814,-2.9828c5.59145,-1.24161 11.18481,-2.30194 16.76299,-3.44278c1.05533,-2.24812 2.57393,-4.36915 3.78023,-6.29484c5.04585,-8.055 13.33723,-15.75751 22.28998,-19.35991c2.27268,-0.91448 5.70272,-0.93239 7.98056,-1.09844c0,0 2.49364,-0.17811 2.67176,2.31553c0.17812,2.49364 -2.31553,2.67176 -2.31553,2.67176c-1.24081,0.08665 -5.02396,0.14807 -6.61491,0.80531c-7.90471,3.26556 -15.30942,10.15286 -19.7673,17.30844c-0.41147,0.66046 -0.95895,1.43379 -1.52489,2.26929c2.89696,-0.64722 5.78801,-1.34389 8.67073,-2.12691l2.52277,-0.37957c0,0 2.47487,-0.35356 2.82843,2.12132z" fill="#5c9685" stroke-width="0.5"/><path d="M250.81769,267.09613c-2.5,0 -2.5,-2.5 -2.5,-2.5l0.00864,-0.42697c-0.67996,-8.21225 -1.47959,-16.53023 -1.91412,-24.84948c-0.71377,-0.24776 -1.58473,-0.8524 -1.58473,-2.328c0,-1.34044 0.71871,-1.96217 1.38542,-2.25054c-0.23861,-6.98098 -0.15728,-13.94933 0.53074,-20.84329c0,0 0.24876,-2.4876 2.73635,-2.23884c2.48759,0.24876 2.23883,2.73635 2.23883,2.73635c-0.57439,5.73207 -0.71704,11.52306 -0.60111,17.33146c2.04005,-1.84398 4.11128,-3.70192 5.65776,-5.78731c2.71702,-3.66383 5.12797,-8.33999 6.98929,-12.49447c0.32089,-0.71623 2.79587,-6.66869 2.70261,-7.93784c-0.09303,-1.26604 -4.04732,-2.84908 -4.3196,-2.91035c-5.8681,-1.32049 -13.14136,0.12366 -19.01365,0.71105c0,0 -2.48759,0.24876 -2.73635,-2.23883c-0.24876,-2.48759 2.23884,-2.73635 2.23884,-2.73635c6.34745,-0.63458 14.50738,-2.25179 20.79239,-0.56892c2.80235,0.75036 7.2649,3.27398 7.91036,6.61923c0.52218,2.70633 -1.90854,8.62743 -3.00866,11.09972c-2.00022,4.49503 -4.65247,9.57876 -7.60618,13.52353c-2.56948,3.43161 -6.39055,6.24296 -9.37069,9.37688c0.4209,8.49665 1.25265,16.9967 1.95521,25.37078l0.00863,0.8422c0,0 0,2.5 -2.5,2.5z" fill="#5c9685" stroke-width="0.5"/><path d="M289.1867,258.66772c-2.32119,0.92847 -3.24967,-1.39272 -3.24967,-1.39272l-0.8132,-2.54617c0.22566,-18.06394 -0.19885,-36.49449 1.59868,-54.47457c0,0 0.24875,-2.4876 2.73635,-2.23884c2.48759,0.24876 2.23883,2.73636 2.23883,2.73636c-1.78397,17.83482 -1.35042,36.12158 -1.57425,54.03951l0.45597,0.62676c0,0 0.92847,2.32119 -1.39272,3.24967z" fill="#5c9685" stroke-width="0.5"/><path d="M331.05439,243.97211c0,2.5 -2.5,2.5 -2.5,2.5l-2.6018,-0.21547c-4.08756,-1.899 -5.77783,-3.45673 -6.92476,-7.90365c-0.07977,-0.30927 -0.17383,-0.64298 -0.26732,-0.98934c-1.50711,4.46952 -2.77035,9.02746 -5.1823,13.09444c-0.91354,1.5404 -1.47512,3.36091 -2.7573,4.61128c-1.73805,1.69494 -3.65507,4.09771 -6.08109,4.00788c-2.93649,-0.10874 -2.99781,-8.90777 -3.01637,-9.74317c-0.11608,-5.22466 0.67412,-11.4007 2.68084,-16.27339c2.18622,-5.30853 7.95497,-10.06121 11.91168,-14.01871c0,0 1.76777,-1.76776 3.53553,0c1.76776,1.76776 0,3.53554 0,3.53554c-3.48035,3.47964 -9.08257,7.93325 -10.9334,12.63387c-0.84151,2.13721 -1.29205,4.41717 -1.70237,6.67714c-0.30836,1.69842 -0.51215,6.23255 -0.49326,7.34677c0.01096,0.64628 0.11578,1.29243 0.21713,1.93753c1.1445,-1.99473 3.05402,-3.95801 3.79266,-5.69939c1.62523,-3.8315 2.65967,-8.0506 4.08787,-11.97194l0.06326,-0.08591l-0.02144,-0.0099l1.88015,-4.07365c0.38497,-0.88483 1.26699,-1.50351 2.2935,-1.50351c0.998,0 1.85943,0.58479 2.26029,1.43041l1.24495,2.4899l-0.02641,0.01321c0.04887,0.08331 0.09593,0.16787 0.14103,0.25376c1.09246,2.08072 0.49385,7.04356 2.95022,8.6822c0.71412,0.47639 1.58506,0.65973 2.37759,0.98959l0.57111,-0.21547c0,0 2.5,0 2.5,2.5z" fill="#5c9685" stroke-width="0.5"/><path d="M358.75484,223.02359c0,0 -0.31009,-2.4807 2.17061,-2.79078c2.4807,-0.31008 2.79078,2.17061 2.79078,2.17061c0.93994,7.51952 3.077,14.81546 3.96436,22.32326c0.60803,5.1445 0.4857,10.44106 0.21607,15.5952l-0.10454,0.17415l0.0727,0.01512l-0.68177,3.27841c-0.21697,1.15971 -1.23463,2.03741 -2.45729,2.03741c-1.30615,0 -2.37835,-1.00167 -2.49034,-2.27874l-0.24897,-2.48966c-0.07799,-0.33949 -0.07798,-0.58723 -0.07798,-0.58723l0.01905,-0.00216l-0.00664,-0.06637l0.87777,-0.08778l0.14148,-0.68032c0.46133,-9.2612 -1.17898,-17.99262 -2.6956,-26.88436c-8.88856,11.88845 -17.19905,24.06644 -26.84057,35.36334l-0.02632,0.01572l0.00694,0.0062l-2.00729,2.24349c-0.45799,0.51639 -1.12649,0.84185 -1.87101,0.84185c-1.38071,0 -2.5,-1.11929 -2.5,-2.5c0,-0.06863 0.00277,-0.13662 0.00819,-0.20385l0.31545,-4.41636c0,0 0.17812,-2.49365 2.67176,-2.31553c0.76439,0.0546 1.27773,0.32677 1.62211,0.678c6.59869,-7.96013 12.60787,-16.31602 18.68996,-24.65809c-6.57693,-3.60149 -9.82783,-7.24228 -13.20747,-13.97357c0,0 -1.11803,-2.23607 1.11804,-3.35411c2.23607,-1.11803 3.3541,1.11803 3.3541,1.11803c2.87515,5.77635 5.31389,8.62426 10.84401,11.66572c0.26247,0.04355 0.62364,0.13615 0.9731,0.333c1.09343,-1.48621 2.19272,-2.96977 3.30167,-4.44837c0,0 1.16157,-1.54875 2.80326,-0.89833c-0.27239,-1.72937 -0.52625,-3.46901 -0.74561,-5.2239z" fill="#5c9685" stroke-width="0.5"/><path d="M367.93702,204.94511c0,-1.38071 1.11929,-2.5 2.5,-2.5c1.38071,0 2.5,1.11929 2.5,2.5c0,1.38071 -1.11929,2.5 -2.5,2.5c-1.38071,0 -2.5,-1.11929 -2.5,-2.5z" fill="#5c9685" stroke-width="0.5"/><path d="M415.00865,245.71456c-0.79057,2.37171 -3.16228,1.58114 -3.16228,1.58114l-1.91973,-0.63991c-1.7874,-0.62932 -3.79259,-0.82627 -5.36219,-1.88796c-2.25045,-1.52223 -5.14973,-8.28378 -8.89622,-7.94584c-0.53231,0.04801 -0.37019,1.00286 -0.56476,1.50066c-0.5503,1.40786 -1.19662,2.78053 -1.66978,4.21615c-0.48183,1.46194 -0.86606,2.95709 -1.19035,4.46184c-0.16841,0.78147 0.0421,1.67905 -0.20309,2.4187c-0.00784,0.14081 -0.01548,0.28163 -0.02292,0.42247l-0.05162,0.10467l0.03843,0.00547l-0.68392,4.8067c-0.15528,1.23158 -1.20652,2.18411 -2.48023,2.18411c-1.38071,0 -2.5,-1.11929 -2.5,-2.5c0,-0.10572 0.00656,-0.20991 0.0193,-0.31218l0.54815,-4.93331l0.00667,0.00074c-0.0011,-0.00994 -0.00218,-0.01989 -0.00326,-0.02984c-0.14742,-1.35591 0.06031,-3.04663 0.47412,-4.8008c0.52871,-6.23003 1.41219,-12.43413 2.48221,-18.592c0,0 0.42835,-2.46303 2.89138,-2.03467c2.46303,0.42836 2.03468,2.89138 2.03468,2.89138c-0.31827,1.82845 -0.61908,3.66092 -0.89823,5.49692c0.05691,-0.01682 0.11485,-0.03163 0.17386,-0.04432c7.7615,-1.66871 8.70641,5.39108 13.31426,8.55338c1.18647,0.81426 2.74977,0.84955 4.12465,1.27432l1.91973,0.63991c0,0 2.37171,0.79056 1.58114,3.16227z" fill="#5c9685" stroke-width="0.5"/><path d="M419.28507,256.18037c1.11804,-2.23607 3.3541,-1.11803 3.3541,-1.11803l0.92303,0.4928c5.05725,1.7057 10.77023,0.70761 14.42571,-3.64574c0.82875,-0.98697 1.01512,-2.36941 1.54525,-3.5441c1.28769,-2.85333 2.43907,-5.80794 3.07856,-8.87237c0.63259,-3.03132 0.87816,-6.13068 1.30772,-9.19736c0.17467,-1.24704 0.48218,-2.47198 0.70009,-3.7122c0.03129,-0.17807 0.11364,-0.70842 0.04709,-0.54032c-1.54143,3.89315 -3.64851,6.40195 -5.77974,10.03369c-0.99464,1.69492 -3.40301,7.22955 -4.55132,8.79333l-2.33675,4.36194c-0.41357,0.81017 -1.25602,1.36491 -2.22805,1.36491c-1.30615,0 -2.37835,-1.00167 -2.49034,-2.27875l-0.31454,-3.14542l0.0415,-0.00415l-0.0508,-0.12007c-0.00567,-5.0011 -1.18136,-11.9382 1.26217,-16.56651c1.19686,-2.26699 4.15794,-3.94329 6.19383,-5.3103c0,0 2.08013,-1.38675 3.46688,0.69338c1.38675,2.08013 -0.69338,3.46688 -0.69338,3.46688c-0.85086,0.56256 -4.00437,2.43304 -4.59412,3.57389c-1.05065,2.03244 -1.13283,4.87014 -0.99784,7.66511c1.87845,-4.46204 5.28449,-8.85875 7.83154,-12.16029c1.39197,-1.8043 2.09772,-4.85963 4.33648,-5.28514c2.1024,-0.39959 4.42397,1.53919 5.42746,3.42936c0.28643,0.53952 -0.57623,9.58598 -0.76128,10.88128c-0.77154,5.40051 -2.04369,10.09212 -4.35399,15.02148c-0.72404,1.54486 -1.11623,3.30869 -2.214,4.61473c-5.0269,5.98062 -12.76861,7.46559 -19.84189,5.23845l-1.61532,-0.77637c0,0 -2.23607,-1.11803 -1.11803,-3.35411z" fill="#5c9685" stroke-width="0.5"/></g></g></svg>