<svg version="1.1" xmlns="http://www.w3.org/2000/svg" xmlns:xlink="http://www.w3.org/1999/xlink" width="107.92188" height="99.00156" viewBox="0,0,107.92188,99.00156"><g transform="translate(-207.75,-150.99844)"><g data-paper-data="{&quot;isPaintingLayer&quot;:true}" fill-rule="nonzero" stroke="none" stroke-linecap="butt" stroke-linejoin="miter" stroke-miterlimit="10" stroke-dasharray="" stroke-dashoffset="0" style="mix-blend-mode: normal"><path d="M248,201c-2.5,0 -2.5,-2.5 -2.5,-2.5l0.02513,-1.85355c0.97496,-6.82471 0.78996,-13.39182 1.09383,-20.27165c0.33865,-7.6672 0.98095,-15.33883 1.3845,-23.00619c0,0 0.13139,-2.49654 2.62794,-2.36515c2.49654,0.13139 2.36515,2.62794 2.36515,2.62794c-0.40282,7.65349 -1.04346,15.3111 -1.38247,22.96435c-0.31186,7.04022 -0.14075,13.76864 -1.1392,20.75781l0.02513,1.14645c0,0 0,2.5 -2.5,2.5z" fill="#5dc191" stroke-width="0.5"/><path d="M283.76777,177.23223c1.76777,1.76777 0,3.53553 0,3.53553l-2.30599,2.26034c-5.95207,2.97603 -11.71339,8.53105 -15.29746,14.22319c-2.0156,3.20113 -2.61655,6.50826 -5.27568,9.38671c-1.45898,1.57932 -2.23921,4.23202 -4.31425,4.79512c-1.90596,0.51721 -3.68014,-1.43482 -5.53109,-2.12342c-6.05068,-2.25101 -8.4769,-6.78027 -12.10616,-11.89147c-2.99259,-4.21456 -6.3883,-7.65893 -9.08086,-12.13199c0,0 -1.28624,-2.14373 0.85749,-3.42997c2.14373,-1.28624 3.42997,0.85749 3.42997,0.85749c2.61479,4.37331 5.93623,7.68922 8.86826,11.80697c1.8531,2.60249 3.55465,5.34345 5.73108,7.68228c1.11109,1.194 2.77071,1.72695 4.21363,2.4873c0.91451,0.4819 1.4843,2.19137 2.46891,1.87658c1.14973,-0.36759 0.99004,-2.21848 1.68575,-3.20488c0.48668,-0.69003 1.38449,-1.03923 1.81847,-1.76357c1.2747,-2.12757 1.58521,-4.75036 2.90585,-6.84972c3.91059,-6.21649 10.17471,-12.5129 16.70254,-15.77681l1.69401,-1.73966c0,0 1.76777,-1.76777 3.53553,0z" fill="#5dc191" stroke-width="0.5"/><text transform="translate(208,244) scale(0.5,0.5)" font-size="40" xml:space="preserve" fill="#5dc191" fill-rule="nonzero" stroke="none" stroke-width="1" stroke-linecap="butt" stroke-linejoin="miter" stroke-miterlimit="10" stroke-dasharray="" stroke-dashoffset="0" font-family="Sans Serif" font-weight="normal" text-anchor="start" style="mix-blend-mode: normal"><tspan x="0" dy="0">TRAP (陷阱)</tspan></text></g></g></svg>