<svg version="1.1" xmlns="http://www.w3.org/2000/svg" xmlns:xlink="http://www.w3.org/1999/xlink" width="63.36821" height="62.216" viewBox="0,0,63.36821,62.216"><g transform="translate(-208.42389,-149.58289)"><g data-paper-data="{&quot;isPaintingLayer&quot;:true}" fill-rule="nonzero" stroke="none" stroke-width="1" stroke-linecap="butt" stroke-linejoin="miter" stroke-miterlimit="10" stroke-dasharray="" stroke-dashoffset="0" style="mix-blend-mode: normal"><g><path d="M237.39689,208.66589c-14.527,0 -26.307,-12.525 -26.307,-27.978c0,-15.453 11.775,-27.977 26.307,-27.977c14.527,0 21.275,12.523 21.275,27.977c0.001,15.452 -6.749,27.978 -21.275,27.978z" fill="#ec1c2c"/><g fill="#231f20"><path d="M237.67789,211.79889c-16.156,0 -29.254,-13.927 -29.254,-31.109c0,-17.179 13.098,-31.107 29.254,-31.107c14.238,0 20.648,10.821 21.972,25.149c0,0 0.58,4.528 0.189,9.136c-0.73,15.684 -7.017,27.931 -22.161,27.931zM237.24889,207.05289c12.602,0 18.984,-10.007 19.92,-22.949c0,0 -0.115,-8.207 -0.144,-8.456c-1.341,-12.145 -7.71,-21.314 -19.774,-21.314c-13.686,0 -24.785,11.798 -24.785,26.357c0,14.558 11.097,26.356 24.783,26.362z"/><path d="M250.73389,189.64289c-0.181,-3.568 -0.271,-6.986 -0.672,-10.561c-0.268,-2.387 -0.289,-4.687 1.514,-6.455c0.395,-0.384 1.076,0.118 0.773,0.598c-0.741,1.182 -1.041,2.373 -1.099,3.571c-0.064,0.078 0.49,4.274 1.098,6.19c0.63,2.312 1.15,4.626 0.389,6.929c-0.364,1.101 -1.942,0.888 -2.003,-0.272z"/></g><path d="M237.53789,162.13789c-3.431,0 -6.212,1.85 -6.212,-0.084c0,-1.934 2.781,-3.5 6.212,-3.5c3.43,0 6.211,1.566 6.211,3.5c0,1.934 -2.782,0.084 -6.211,0.084z" fill="#ffffff"/></g><g><path d="M267.11289,173.69889c0.61,1.021 1.222,2.039 1.833,3.059c-1.128,0.734 -2.229,1.472 -3.482,2.064c-4.564,2.162 -9.385,1.686 -14.212,1.624c-0.089,-0.375 -0.153,-0.977 -0.219,-1.348c6.148,0.258 11.784,-1.205 16.08,-5.399z" fill="#99661d"/><path d="M253.36089,182.87989c0,0 -1.876,-0.23 -2.23,-0.251c0,0 -1.124,-3.771 -0.562,-5.25l1.609,-0.046c3.215,0.03 6.668,-0.97 7.749,-1.562c0.516,-0.283 3.466,-1.423 6.557,-4.9c0.527,-0.596 1.515,-0.395 1.898,0.242c1.084,1.807 2.168,3.609 3.252,5.414c0.347,0.58 0.088,1.265 -0.435,1.658c-7.358,5.528 -17.077,4.864 -17.838,4.695zM252.64689,180.34389c4.442,0.112 8.57,0.49 12.817,-1.522c1.253,-0.592 2.354,-1.33 3.482,-2.064c-0.611,-1.02 -1.223,-2.038 -1.833,-3.059c-4.058,3.962 -8.969,5.58 -14.683,5.53l-1.152,0l0.141,1.109z" fill="#231f20"/></g></g></g></svg>