<svg version="1.1" xmlns="http://www.w3.org/2000/svg" xmlns:xlink="http://www.w3.org/1999/xlink" width="81.00591" height="59.89272" viewBox="0,0,81.00591,59.89272"><defs><linearGradient x1="429.21966" y1="765.11995" x2="429.21966" y2="823.85361" gradientUnits="userSpaceOnUse" id="color-1"><stop offset="0" stop-color="#ee2a7b"/><stop offset="1" stop-color="#811150"/></linearGradient></defs><g transform="translate(-199.49704,-150.05363)"><g data-paper-data="{&quot;isPaintingLayer&quot;:true}" fill-rule="nonzero" stroke-linecap="butt" stroke-linejoin="miter" stroke-miterlimit="10" stroke-dasharray="" stroke-dashoffset="0" style="mix-blend-mode: normal"><path d="M255.51141,186.50785c0,0 -33.20334,0.01261 -48.28319,0.01261c-3.95013,0 -7.15207,-2.87545 -7.15207,-6.42136c0,-3.54656 3.20193,-6.42084 7.15207,-6.42084c12.64277,0 48.24437,-0.01326 48.24437,-0.01326c0,0 -2.39015,-2.1717 -13.41661,-12.07096c-2.79322,-2.50797 -2.79322,-6.57324 0,-9.08056c2.79467,-2.50732 7.32195,-2.50797 10.11459,0c8.94088,8.02624 25.65878,23.0378 25.65878,23.0378c2.79264,2.50797 2.79264,6.57376 0,9.08056c0,0 -14.4271,12.95363 -25.45341,22.85354c-2.79467,2.50914 -7.32253,2.50914 -10.11459,0c-2.79336,-2.50745 -2.79336,-6.57389 0,-9.07939c8.94103,-8.02988 13.25005,-11.89814 13.25005,-11.89814z" fill="url(#color-1)" stroke="#ffffff" stroke-width="1.15823"/><text transform="translate(204.17296,182.99808) scale(0.24984,0.24984)" font-size="40" xml:space="preserve" fill="#ffa5a5" fill-rule="nonzero" stroke="none" stroke-width="1" stroke-linecap="butt" stroke-linejoin="miter" stroke-miterlimit="10" stroke-dasharray="" stroke-dashoffset="0" font-family="Sans Serif" font-weight="normal" text-anchor="start" style="mix-blend-mode: normal"><tspan x="0" dy="0"> to be cotinued</tspan></text></g></g></svg>