<svg version="1.1" xmlns="http://www.w3.org/2000/svg" xmlns:xlink="http://www.w3.org/1999/xlink" width="146.34109" height="307.30502" viewBox="0,0,146.34109,307.30502"><defs><radialGradient cx="238.8902" cy="193.86571" r="54.7327" gradientUnits="userSpaceOnUse" id="color-1"><stop offset="0" stop-color="#995900"/><stop offset="1" stop-color="#663b00"/></radialGradient><radialGradient cx="210.661" cy="153.48911" r="27.7875" gradientUnits="userSpaceOnUse" id="color-2"><stop offset="0" stop-color="#006622"/><stop offset="1" stop-color="#009933"/></radialGradient><radialGradient cx="252.1609" cy="68.54871" r="58.9145" gradientUnits="userSpaceOnUse" id="color-3"><stop offset="0" stop-color="#006622"/><stop offset="1" stop-color="#009933"/></radialGradient><radialGradient cx="267.1154" cy="144.22481" r="38.9024" gradientUnits="userSpaceOnUse" id="color-4"><stop offset="0" stop-color="#006622"/><stop offset="1" stop-color="#009933"/></radialGradient><radialGradient cx="208.1819" cy="137.72481" r="39.3038" gradientUnits="userSpaceOnUse" id="color-5"><stop offset="0" stop-color="#006622"/><stop offset="1" stop-color="#009933"/></radialGradient><radialGradient cx="232.6154" cy="147.72481" r="38.9024" gradientUnits="userSpaceOnUse" id="color-6"><stop offset="0" stop-color="#006622"/><stop offset="1" stop-color="#009933"/></radialGradient><radialGradient cx="229.6154" cy="119.72481" r="38.9024" gradientUnits="userSpaceOnUse" id="color-7"><stop offset="0" stop-color="#006622"/><stop offset="1" stop-color="#009933"/></radialGradient><radialGradient cx="263.6154" cy="129.72481" r="38.9024" gradientUnits="userSpaceOnUse" id="color-8"><stop offset="0" stop-color="#006622"/><stop offset="1" stop-color="#009933"/></radialGradient><radialGradient cx="201.0953" cy="117.72541" r="38.9217" gradientUnits="userSpaceOnUse" id="color-9"><stop offset="0" stop-color="#006622"/><stop offset="1" stop-color="#009933"/></radialGradient><radialGradient cx="201.5651" cy="88.36851" r="54.4054" gradientUnits="userSpaceOnUse" id="color-10"><stop offset="0" stop-color="#006622"/><stop offset="1" stop-color="#009933"/></radialGradient><radialGradient cx="262.6288" cy="93.87801" r="49.1641" gradientUnits="userSpaceOnUse" id="color-11"><stop offset="0" stop-color="#006622"/><stop offset="1" stop-color="#009933"/></radialGradient><radialGradient cx="278.722" cy="112.17451" r="42.4565" gradientUnits="userSpaceOnUse" id="color-12"><stop offset="0" stop-color="#006622"/><stop offset="1" stop-color="#009933"/></radialGradient><radialGradient cx="231.072" cy="98.67451" r="42.4565" gradientUnits="userSpaceOnUse" id="color-13"><stop offset="0" stop-color="#006622"/><stop offset="1" stop-color="#009933"/></radialGradient><radialGradient cx="257.1539" cy="157.62211" r="22.505" gradientUnits="userSpaceOnUse" id="color-14"><stop offset="0" stop-color="#006622"/><stop offset="1" stop-color="#009933"/></radialGradient><radialGradient cx="206.8539" cy="70.35491" r="24.5166" gradientUnits="userSpaceOnUse" id="color-15"><stop offset="0" stop-color="#006622"/><stop offset="1" stop-color="#009933"/></radialGradient></defs><g transform="translate(-163.4589,45.55652)"><g data-paper-data="{&quot;isPaintingLayer&quot;:true}" fill-rule="nonzero" stroke-linejoin="miter" stroke-miterlimit="10" stroke-dasharray="" stroke-dashoffset="0" style="mix-blend-mode: normal"><path d="M224.2726,125.26801h28.3616v135.0082h-28.3616z" fill="url(#color-1)" stroke="#995900" stroke-width="1.16275" stroke-linecap="butt"/><path d="M208.2571,148.02821c6.1608,-0.4604 13.5229,0.9605 18.1779,2.5119c4.655,1.5519 7.5364,3.6948 7.5364,6.0595c0,2.3647 -3.8378,5.4746 -7.5364,6.0595c-3.3079,0.5163 -6.335,-2.6844 -9.6064,-2.3788c-1.6493,0.1356 -0.9765,2.4781 -2.5,3.2268c-1.5443,1.0014 -3.8765,1.7083 -6.0715,1.6639c-4.5485,-0.0928 -8.7557,-0.2844 -11.7857,-2.0168c-4.0214,-1.9417 -7.5114,-5.1156 -7.8571,-8.2185c-0.115,-1.4168 3.5486,-1.4188 5.3571,-2.1428c4.5743,-1.8172 8.8879,-4.3634 14.2857,-4.7647z" fill="url(#color-2)" stroke="none" stroke-width="0.61823" stroke-linecap="round"/><path d="M237.3265,54.44131c4.2919,-0.3692 3.3251,5.6852 8.021,6.1388c6.7754,0.6418 14.1751,-5.6608 19.6877,-3.6572c9.0388,3.2976 10.9595,11.4261 17.0612,16.0934c4.8068,3.631 15.3871,6.3809 15.3871,10.4647c0,4.0839 -7.8357,9.4547 -15.3871,10.4648c-6.7536,0.8916 -12.9341,-4.6359 -19.6133,-4.1082c-3.3674,0.2342 -1.9936,4.2797 -5.1043,5.5728c-3.1529,1.7293 -7.9144,2.9501 -12.3959,2.8735c-9.2868,-0.1602 -17.159,-0.7994 -24.0628,-3.483c-5.6803,-2.2074 -9.0768,-5.8367 -9.8439,-9.5348c-1.5211,-7.3213 -3.7086,-15.6014 1.4584,-22.2043c4.7265,-5.0156 15.7895,-7.8455 24.7919,-8.6205z" fill="url(#color-3)" stroke="none" stroke-width="1.20104" stroke-linecap="round"/><path d="M263.75,136.57941c8.625,-0.6445 18.932,1.3447 25.449,3.5167c6.517,2.1727 10.551,5.1727 10.551,8.4833c0,3.3106 -5.373,7.6645 -10.551,8.4833c-4.631,0.7228 -8.869,-3.7581 -13.449,-3.3303c-2.309,0.1898 -1.367,3.4694 -3.5,4.5176c-2.162,1.4019 -5.427,2.3915 -8.5,2.3294c-6.368,-0.1299 -12.258,-0.3981 -16.5,-2.8235c-5.63,-2.7184 -10.516,-7.1619 -11,-11.5059c-0.161,-1.9835 4.968,-1.9864 7.5,-3c6.404,-2.544 12.443,-6.1087 20,-6.6706z" fill="url(#color-4)" stroke="none" stroke-width="0.86553" stroke-linecap="round"/><path d="M205.25,130.07941c8.625,-0.6445 18.932,1.3447 25.449,3.5167c6.517,2.1727 10.551,5.1727 10.551,8.4833c0,3.3106 -5.373,7.6645 -10.551,8.4833c-4.631,0.7228 -8.869,-3.7581 -13.449,-3.3303c-2.309,0.1898 -1.367,3.4694 -3.5,4.5176c-2.162,1.4019 -5.427,2.3915 -8.5,2.3294c-6.368,-0.1299 -11.351,-1.2134 -16.5,-2.8235c-4.442,-1.409 -10.98,-1.8537 -11.75,-4.7647c-0.88,-3.9297 4.393,-7.6447 8.25,-9.7412c5.859,-3.1376 12.443,-6.1087 20,-6.6706z" fill="url(#color-5)" stroke="none" stroke-width="0.86553" stroke-linecap="round"/><path d="M229.25,140.07941c8.625,-0.6445 18.932,1.3447 25.449,3.5167c6.517,2.1727 10.551,5.1727 10.551,8.4833c0,3.3106 -5.373,7.6645 -10.551,8.4833c-4.631,0.7228 -8.869,-3.7581 -13.449,-3.3303c-2.309,0.1898 -1.367,3.4694 -3.5,4.5176c-2.162,1.4019 -5.427,2.3915 -8.5,2.3294c-6.368,-0.1299 -12.258,-0.3981 -16.5,-2.8235c-5.63,-2.7184 -10.516,-7.1619 -11,-11.5059c-0.161,-1.9835 4.968,-1.9864 7.5,-3c6.404,-2.544 12.443,-6.1087 20,-6.6706z" fill="url(#color-6)" stroke="none" stroke-width="0.86553" stroke-linecap="round"/><path d="M226.25,112.07941c8.625,-0.6445 18.932,1.3447 25.449,3.5167c6.517,2.1727 10.551,5.1727 10.551,8.4833c0,3.3106 -5.373,7.6645 -10.551,8.4833c-4.631,0.7228 -8.869,-3.7581 -13.449,-3.3303c-2.309,0.1898 -1.367,3.4694 -3.5,4.5176c-2.162,1.4019 -5.427,2.3915 -8.5,2.3294c-6.368,-0.1299 -12.258,-0.3981 -16.5,-2.8235c-5.63,-2.7184 -10.516,-7.1619 -11,-11.5059c-0.161,-1.9835 4.968,-1.9864 7.5,-3c6.404,-2.544 12.443,-6.1087 20,-6.6706z" fill="url(#color-7)" stroke="none" stroke-width="0.86553" stroke-linecap="round"/><path d="M260.25,122.07941c8.625,-0.6445 18.932,1.3447 25.449,3.5167c6.517,2.1727 10.551,5.1727 10.551,8.4833c0,3.3106 -5.373,7.6645 -10.551,8.4833c-4.631,0.7228 -8.869,-3.7581 -13.449,-3.3303c-2.309,0.1898 -1.367,3.4694 -3.5,4.5176c-2.162,1.4019 -5.427,2.3915 -8.5,2.3294c-6.368,-0.1299 -12.258,-0.3981 -16.5,-2.8235c-5.63,-2.7184 -10.516,-7.1619 -11,-11.5059c-0.161,-1.9835 4.968,-1.9864 7.5,-3c6.404,-2.544 12.443,-6.1087 20,-6.6706z" fill="url(#color-8)" stroke="none" stroke-width="0.86553" stroke-linecap="round"/><path d="M197.75,110.07941c8.625,-0.6445 18.932,1.3447 25.449,3.5167c6.517,2.1727 10.551,5.1727 10.551,8.4833c0,3.3106 -5.373,7.6645 -10.551,8.4833c-4.631,0.7228 -8.869,-3.7581 -13.449,-3.3303c-2.309,0.1898 -1.367,3.4694 -3.5,4.5176c-2.162,1.4019 -5.48,2.2313 -8.5,2.3294c-2.791,0.0664 -5.469,-0.6007 -7.75,-1.5882c-3.37,-1.4534 -5.307,-4.4146 -8,-6.4941c-3.917,-2.1847 -10.74,-3.077 -11.75,-6.2471c-0.585,-1.8127 4.968,-1.9864 7.5,-3c6.404,-2.544 12.443,-6.1087 20,-6.6706z" fill="url(#color-9)" stroke="none" stroke-width="0.86553" stroke-linecap="round"/><path d="M191.4544,79.48231c1.2269,-0.1024 1.6689,-0.6994 3.2322,-1.0709c5.8774,-1.3988 12.8233,-6.0541 17.8102,-3.9113c8.1768,3.5267 9.9143,12.2199 15.4341,17.2114c4.3484,3.8833 13.9197,6.8242 13.9197,11.1918c0,4.3675 -7.0885,10.1115 -13.9197,11.1918c-6.1095,0.9536 -11.7006,-4.958 -17.7428,-4.3937c-3.0462,0.2505 -1.8035,4.5771 -4.6175,5.96c-2.8523,1.8495 -7.1597,3.1551 -11.2138,3.0731c-8.4011,-0.1713 -15.5226,-0.8548 -21.768,-3.725c-5.1386,-2.3607 -10.2758,-6.3353 -8.9051,-10.1972c2.1583,-5.9879 12.9394,-8.2751 15.8313,-13.829c1.5171,-2.9018 -7.4526,-6.0336 -5.0133,-8.4744c3.1597,-3.1597 11.2297,-1.7182 16.9527,-3.0266z" fill="url(#color-10)" stroke="none" stroke-width="1.14186" stroke-linecap="round"/><path d="M258.3756,84.21591c10.9001,-0.8145 23.9259,1.6994 32.1619,4.4444c8.2361,2.7458 13.3342,6.5371 13.3342,10.721c0,4.1838 -6.7903,9.6862 -13.3342,10.721c-5.8525,0.9135 -11.2084,-4.7494 -16.9966,-4.2088c-2.918,0.2399 -1.7275,4.3845 -4.4232,5.7093c-2.7323,1.7716 -6.8585,3.0223 -10.7421,2.9438c-8.0478,-0.1641 -15.4914,-0.5031 -20.8524,-3.5683c-7.1151,-3.4354 -13.2899,-9.051 -13.9015,-14.5409c-0.2035,-2.5067 6.2784,-2.5103 9.4783,-3.7913c8.0932,-3.2151 15.7252,-7.7201 25.2756,-8.4302z" fill="url(#color-11)" stroke="none" stroke-width="1.09383" stroke-linecap="round"/><path d="M268.55,100.73821c2.943,-0.2993 2.28,4.6087 5.5,4.9765c4.646,0.5202 9.72,-4.5889 13.5,-2.9647c6.198,2.6732 7.515,9.2626 11.699,13.0461c3.296,2.9435 10.551,5.1727 10.551,8.4833c0,3.3106 -5.373,7.6645 -10.551,8.4833c-4.631,0.7228 -8.869,-3.7581 -13.449,-3.3303c-2.309,0.1898 -1.367,3.4694 -3.5,4.5176c-2.162,1.4019 -5.427,2.3915 -8.5,2.3294c-6.368,-0.1299 -11.766,-0.648 -16.5,-2.8235c-3.895,-1.7894 -6.224,-4.7315 -6.75,-7.7294c-1.043,-5.9351 -2.543,-12.6473 1,-18c3.241,-4.0659 10.827,-6.36 17,-6.9883z" fill="url(#color-12)" stroke="none" stroke-width="0.86553" stroke-linecap="round"/><path d="M220.9,87.23821c2.943,-0.2993 2.28,4.6087 5.5,4.9765c4.646,0.5202 9.72,-4.5889 13.5,-2.9647c6.198,2.6732 7.515,9.2626 11.699,13.0461c3.296,2.9435 10.551,5.1727 10.551,8.4833c0,3.3106 -5.373,7.6645 -10.551,8.4833c-4.631,0.7228 -8.869,-3.7581 -13.449,-3.3303c-2.309,0.1898 -1.367,3.4694 -3.5,4.5176c-2.162,1.4019 -5.427,2.3915 -8.5,2.3294c-6.368,-0.1299 -11.766,-0.648 -16.5,-2.8235c-3.895,-1.7894 -6.224,-4.7315 -6.75,-7.7294c-1.043,-5.9351 -2.543,-12.6473 1,-18c3.241,-4.0659 10.827,-6.36 17,-6.9883z" fill="url(#color-13)" stroke="none" stroke-width="0.86553" stroke-linecap="round"/><path d="M257.4571,154.01001c3.7408,-0.1062 6.8515,0.5917 9.5358,1.4638c14.3735,5.5259 10.6435,7.6978 8.6421,9.1554c-1.7279,0.8332 -6.3093,-1.9359 -9.6064,-1.7266c-1.6686,0.0959 -0.8129,2.4797 -2.5,2.3421c-3.5357,-0.3261 -5.1457,-3.6057 -9.0357,-3.9523c-3.5872,-0.2982 -6.52,2.5672 -10,2.1774c-3.4829,-0.5577 -6.79,-2.5448 -6.6786,-4.4463c0.095,-1.5319 4.5728,-1.8374 7.1786,-2.8178c4.0078,-0.7078 8.08,-2.0666 12.4642,-2.1957z" fill="url(#color-14)" stroke="none" stroke-width="0.56751" stroke-linecap="round"/><path d="M207.1571,65.37821c3.7408,-0.1463 6.8515,0.8152 9.5358,2.0168c14.3735,7.6134 10.6435,10.6058 8.6421,12.6141c-1.7279,1.148 -6.3093,-2.6672 -9.6064,-2.3788c-1.6686,0.1321 -0.8129,3.4164 -2.5,3.2268c-3.5357,-0.4492 -5.1457,-4.9679 -9.0357,-5.4453c-3.5872,-0.411 -6.52,3.5369 -10,3c-3.4829,-0.7684 -6.79,-3.5062 -6.6786,-6.1261c0.095,-2.1106 4.5728,-2.5316 7.1786,-3.8823c4.0078,-0.9752 8.08,-2.8473 12.4642,-3.0252z" fill="url(#color-15)" stroke="none" stroke-width="0.61823" stroke-linecap="round"/><path d="M179.22034,160.68887c2.5,0 2.5,2.5 2.5,2.5l-0.04855,1.13898c-0.58576,2.83896 -2.2533,5.43202 -2.56494,8.24814c-0.81744,7.38664 -1.56307,14.77189 -2.61192,22.1721c-0.41431,2.07361 -2.26606,6.96097 -1.79098,9.06712c0.08798,0.39002 0.77452,-0.28786 1.17272,-0.25187c1.10382,0.09977 2.18029,0.40366 3.2603,0.65254c2.42328,0.55844 4.87491,1.08704 7.35721,1.23645c5.91746,0.35617 11.82686,0.7156 17.68185,1.31229c4.03076,0.41078 8.18919,-0.40658 12.22586,-0.01021c2.52289,0.24773 5.04307,0.64603 7.57808,0.64017c0,0 2.5,0 2.5,2.5c0,2.5 -2.5,2.5 -2.5,2.5c-2.67248,-0.00555 -5.33177,-0.38621 -7.99049,-0.65721c-4.0973,-0.41762 -8.32147,0.39294 -12.42438,-0.01021c-5.73816,-0.56384 -11.54774,-0.90949 -17.34744,-1.28248c-3.69124,-0.23739 -7.85784,-0.9187 -11.43796,-2.00315c-1.37345,-0.41603 -3.33396,-0.28705 -4.01681,-1.54925c-1.97745,-3.65519 0.04616,-9.20426 0.80378,-12.98835c1.05416,-7.31496 1.58588,-14.66127 2.5776,-21.93885c0.42296,-3.10379 2.0339,-5.54586 2.62458,-8.61781l-0.04855,-0.1584c0,0 0,-2.5 2.5,-2.5z" fill="#000000" stroke="none" stroke-width="0.5" stroke-linecap="butt"/><path d="M303.58957,232.24006c-2.23607,1.11803 -3.3541,-1.11803 -3.3541,-1.11803l-0.91262,-2.41541c0.01099,-3.08149 -0.6393,-5.99394 -0.64869,-9.08167c0,-2.53392 0.24513,-5.06098 -0.4805,-7.53148c-0.20135,-0.68553 -0.17657,-1.71976 -0.84601,-1.96944c-1.13292,-0.42255 -2.40723,0.37245 -3.61454,0.30577c-1.72086,-0.09504 -3.41747,-0.4518 -5.13041,-0.64213c-11.50574,-1.27842 -23.18008,1.30955 -34.78294,1.30955c0,0 -2.5,0 -2.5,-2.5c0,-2.5 2.5,-2.5 2.5,-2.5c11.77666,0 23.58575,-2.58408 35.27563,-1.28521c1.75234,0.1947 3.49774,0.44796 5.24864,0.65525c1.81256,0.21459 3.87906,-0.59395 5.46712,0.30577c4.51497,2.55798 3.86301,9.61983 3.86301,13.85193c-0.01099,3.08149 0.6393,5.99394 0.64869,9.08167l0.38476,0.17935c0,0 1.11803,2.23607 -1.11803,3.3541z" fill="#000000" stroke="none" stroke-width="0.5" stroke-linecap="butt"/><path d="M176.1552,260.96283c-1.76777,-1.76777 0,-3.53553 0,-3.53553l1.29738,-1.29738c1.20302,-1.20302 2.64936,-2.19716 3.6318,-3.58615c2.74709,-3.88388 3.38408,-7.59825 8.49637,-9.38049c3.11571,-1.0862 8.34881,-0.09071 11.69507,-0.09071c1.8305,0 3.6872,0.33303 5.49146,0.02416c2.78584,-0.4769 5.56312,-1.57068 8.37738,-1.30938c3.5789,0.3323 7.40756,1.70421 10.81951,2.67879c0,0 2.40381,0.6868 1.71701,3.09061c-0.6868,2.40381 -3.09061,1.71701 -3.09061,1.71701c-3.59786,-1.02825 -8.71082,-3.21593 -12.58894,-2.52274c-2.70307,0.48316 -5.38515,1.31082 -8.13104,1.32155c-2.59465,0.01014 -5.18961,0 -7.78429,0c-1.72389,0 -3.52208,-0.59397 -5.17088,-0.09071c-3.47789,1.06154 -3.94046,4.9372 -5.77482,7.48546c-0.15144,0.21037 -3.81758,3.86323 -4.15248,4.19813l-1.29738,1.29738c0,0 -1.76777,1.76777 -3.53553,0z" fill="#000000" stroke="none" stroke-width="0.5" stroke-linecap="butt"/><path d="M302.94192,260.96283c-1.76777,1.76777 -3.53553,0 -3.53553,0l-2.20641,-2.25206c-1.64278,-3.2251 -2.82664,-6.40272 -3.6407,-9.9371c-0.08406,-0.36496 -0.18836,-2.56875 -1.12611,-2.83747c-1.8943,-0.54284 -7.10985,0.1903 -8.77365,0.1903c-10.18982,0 -20.09924,0.80213 -30.21237,1.93078c0,0 -2.48471,0.27608 -2.76079,-2.20863c-0.27608,-2.48471 2.20863,-2.76079 2.20863,-2.76079c10.29494,-1.13904 20.39018,-1.96136 30.76453,-1.96136c2.0057,0 8.66948,-0.77528 10.68707,0.1903c4.73803,2.26754 4.84471,10.22248 6.90961,14.47042l1.68573,1.64008c0,0 1.76777,1.76777 0,3.53553z" fill="#000000" stroke="none" stroke-width="0.5" stroke-linecap="butt"/><path d="M238.5236,259.19505v-302.50156" fill="none" stroke="#ff0000" stroke-width="4.5" stroke-linecap="round"/></g></g></svg>