<svg version="1.1" xmlns="http://www.w3.org/2000/svg" xmlns:xlink="http://www.w3.org/1999/xlink" width="120" height="50.66902" viewBox="0,0,120,50.66902"><defs><linearGradient x1="181.0181" y1="177.73968" x2="301.0176" y2="177.73968" gradientUnits="userSpaceOnUse" id="color-1"><stop offset="0" stop-color="#27aae1"/><stop offset="1" stop-color="#115489"/></linearGradient><linearGradient x1="185.5205" y1="177.73968" x2="296.5137" y2="177.73968" gradientUnits="userSpaceOnUse" id="color-2"><stop offset="0" stop-color="#2f7eba"/><stop offset="0.506" stop-color="#3f9dd6"/><stop offset="1" stop-color="#3e97d1"/></linearGradient></defs><g transform="translate(-181.018,-152.40498)"><g data-paper-data="{&quot;isPaintingLayer&quot;:true}" fill-rule="nonzero" stroke="none" stroke-width="1" stroke-linecap="butt" stroke-linejoin="miter" stroke-miterlimit="10" stroke-dasharray="" stroke-dashoffset="0" style="mix-blend-mode: normal"><path d="M301.018,177.739c0,13.96991 -11.729,25.335 -26.144,25.335h-67.713c-14.415,0 -26.143,-11.36412 -26.143,-25.335c0,-13.96894 11.727,-25.33402 26.143,-25.33402h67.713c14.415,0 26.144,11.36508 26.144,25.33402z" fill="url(#color-1)"/><path d="M296.514,177.739c0,11.58215 -9.688,20.97134 -21.64,20.97134h-67.713c-11.952,0 -21.641,-9.38919 -21.641,-20.97134v0c0,-11.58119 9.689,-20.97037 21.641,-20.97037h67.713c11.952,0 21.64,9.38918 21.64,20.97037z" fill="url(#color-2)"/><text transform="translate(212.2832,176.00272) scale(0.34646,0.34646)" font-size="40" xml:space="preserve" fill="#80ffa8" fill-rule="nonzero" stroke="none" stroke-width="1" stroke-linecap="butt" stroke-linejoin="miter" stroke-miterlimit="10" stroke-dasharray="" stroke-dashoffset="0" font-family="Sans Serif" font-weight="normal" text-anchor="start" style="mix-blend-mode: normal"><tspan x="0" dy="0">按下Z键</tspan><tspan x="0" dy="46.15px">发射子弹</tspan></text></g></g></svg>